<mxGraphModel dx="1194" dy="666" grid="1" gridSize="10" guides="1" tooltips="1" connect="1" arrows="1" fold="1" page="1" pageScale="1" pageWidth="850" pageHeight="1100" math="0" shadow="0">
  <root>
    <mxCell id="0" />
    <mxCell id="1" parent="0" />
    <mxCell id="ak_6twIz9iP2yRLMIv_7-1" value="User" style="swimlane;fontStyle=1;align=center;verticalAlign=top;childLayout=stackLayout;horizontal=1;startSize=30.4;horizontalStack=0;resizeParent=1;resizeParentMax=0;resizeLast=0;collapsible=0;marginBottom=0;" vertex="1" parent="1">
      <mxGeometry x="120" y="10" width="151" height="308.4" as="geometry" />
    </mxCell>
    <mxCell id="ak_6twIz9iP2yRLMIv_7-2" value="- userId" style="text;strokeColor=none;fillColor=none;align=left;verticalAlign=top;spacingLeft=4;spacingRight=4;overflow=hidden;rotatable=0;points=[[0,0.5],[1,0.5]];portConstraint=eastwest;" vertex="1" parent="ak_6twIz9iP2yRLMIv_7-1">
      <mxGeometry y="30.4" width="151" height="30" as="geometry" />
    </mxCell>
    <mxCell id="ak_6twIz9iP2yRLMIv_7-3" value="- name" style="text;strokeColor=none;fillColor=none;align=left;verticalAlign=top;spacingLeft=4;spacingRight=4;overflow=hidden;rotatable=0;points=[[0,0.5],[1,0.5]];portConstraint=eastwest;" vertex="1" parent="ak_6twIz9iP2yRLMIv_7-1">
      <mxGeometry y="60.4" width="151" height="30" as="geometry" />
    </mxCell>
    <mxCell id="ak_6twIz9iP2yRLMIv_7-4" value="- email" style="text;strokeColor=none;fillColor=none;align=left;verticalAlign=top;spacingLeft=4;spacingRight=4;overflow=hidden;rotatable=0;points=[[0,0.5],[1,0.5]];portConstraint=eastwest;" vertex="1" parent="ak_6twIz9iP2yRLMIv_7-1">
      <mxGeometry y="90.4" width="151" height="30" as="geometry" />
    </mxCell>
    <mxCell id="ak_6twIz9iP2yRLMIv_7-5" value="- password" style="text;strokeColor=none;fillColor=none;align=left;verticalAlign=top;spacingLeft=4;spacingRight=4;overflow=hidden;rotatable=0;points=[[0,0.5],[1,0.5]];portConstraint=eastwest;" vertex="1" parent="ak_6twIz9iP2yRLMIv_7-1">
      <mxGeometry y="120.4" width="151" height="30" as="geometry" />
    </mxCell>
    <mxCell id="ak_6twIz9iP2yRLMIv_7-6" value="- address" style="text;strokeColor=none;fillColor=none;align=left;verticalAlign=top;spacingLeft=4;spacingRight=4;overflow=hidden;rotatable=0;points=[[0,0.5],[1,0.5]];portConstraint=eastwest;" vertex="1" parent="ak_6twIz9iP2yRLMIv_7-1">
      <mxGeometry y="150.4" width="151" height="30" as="geometry" />
    </mxCell>
    <mxCell id="ak_6twIz9iP2yRLMIv_7-7" value="- phoneNumber" style="text;strokeColor=none;fillColor=none;align=left;verticalAlign=top;spacingLeft=4;spacingRight=4;overflow=hidden;rotatable=0;points=[[0,0.5],[1,0.5]];portConstraint=eastwest;" vertex="1" parent="ak_6twIz9iP2yRLMIv_7-1">
      <mxGeometry y="180.4" width="151" height="30" as="geometry" />
    </mxCell>
    <mxCell id="ak_6twIz9iP2yRLMIv_7-8" style="line;strokeWidth=1;fillColor=none;align=left;verticalAlign=middle;spacingTop=-1;spacingLeft=3;spacingRight=3;rotatable=0;labelPosition=right;points=[];portConstraint=eastwest;strokeColor=inherit;" vertex="1" parent="ak_6twIz9iP2yRLMIv_7-1">
      <mxGeometry y="210.4" width="151" height="8" as="geometry" />
    </mxCell>
    <mxCell id="ak_6twIz9iP2yRLMIv_7-9" value="+ register()" style="text;strokeColor=none;fillColor=none;align=left;verticalAlign=top;spacingLeft=4;spacingRight=4;overflow=hidden;rotatable=0;points=[[0,0.5],[1,0.5]];portConstraint=eastwest;" vertex="1" parent="ak_6twIz9iP2yRLMIv_7-1">
      <mxGeometry y="218.4" width="151" height="30" as="geometry" />
    </mxCell>
    <mxCell id="ak_6twIz9iP2yRLMIv_7-10" value="+ login()" style="text;strokeColor=none;fillColor=none;align=left;verticalAlign=top;spacingLeft=4;spacingRight=4;overflow=hidden;rotatable=0;points=[[0,0.5],[1,0.5]];portConstraint=eastwest;" vertex="1" parent="ak_6twIz9iP2yRLMIv_7-1">
      <mxGeometry y="248.4" width="151" height="30" as="geometry" />
    </mxCell>
    <mxCell id="ak_6twIz9iP2yRLMIv_7-11" value="+ editProfile()" style="text;strokeColor=none;fillColor=none;align=left;verticalAlign=top;spacingLeft=4;spacingRight=4;overflow=hidden;rotatable=0;points=[[0,0.5],[1,0.5]];portConstraint=eastwest;" vertex="1" parent="ak_6twIz9iP2yRLMIv_7-1">
      <mxGeometry y="278.4" width="151" height="30" as="geometry" />
    </mxCell>
    <mxCell id="ak_6twIz9iP2yRLMIv_7-12" value="Admin" style="swimlane;fontStyle=1;align=center;verticalAlign=top;childLayout=stackLayout;horizontal=1;startSize=40.57142857142857;horizontalStack=0;resizeParent=1;resizeParentMax=0;resizeLast=0;collapsible=0;marginBottom=0;" vertex="1" parent="1">
      <mxGeometry y="405" width="184" height="130.57142857142856" as="geometry" />
    </mxCell>
    <mxCell id="ak_6twIz9iP2yRLMIv_7-13" style="line;strokeWidth=1;fillColor=none;align=left;verticalAlign=middle;spacingTop=-1;spacingLeft=3;spacingRight=3;rotatable=0;labelPosition=right;points=[];portConstraint=eastwest;strokeColor=inherit;" vertex="1" parent="ak_6twIz9iP2yRLMIv_7-12">
      <mxGeometry y="40.57142857142857" width="184" height="8" as="geometry" />
    </mxCell>
    <mxCell id="ak_6twIz9iP2yRLMIv_7-14" value="+ generateReport()" style="text;strokeColor=none;fillColor=none;align=left;verticalAlign=top;spacingLeft=4;spacingRight=4;overflow=hidden;rotatable=0;points=[[0,0.5],[1,0.5]];portConstraint=eastwest;" vertex="1" parent="ak_6twIz9iP2yRLMIv_7-12">
      <mxGeometry y="48.57142857142857" width="184" height="41" as="geometry" />
    </mxCell>
    <mxCell id="ak_6twIz9iP2yRLMIv_7-15" value="+ updateRates()" style="text;strokeColor=none;fillColor=none;align=left;verticalAlign=top;spacingLeft=4;spacingRight=4;overflow=hidden;rotatable=0;points=[[0,0.5],[1,0.5]];portConstraint=eastwest;" vertex="1" parent="ak_6twIz9iP2yRLMIv_7-12">
      <mxGeometry y="89.57142857142857" width="184" height="41" as="geometry" />
    </mxCell>
    <mxCell id="ak_6twIz9iP2yRLMIv_7-16" value="Policy" style="swimlane;fontStyle=1;align=center;verticalAlign=top;childLayout=stackLayout;horizontal=1;startSize=29.818181818181817;horizontalStack=0;resizeParent=1;resizeParentMax=0;resizeLast=0;collapsible=0;marginBottom=0;" vertex="1" parent="1">
      <mxGeometry x="310" y="290" width="200" height="337.8181818181818" as="geometry" />
    </mxCell>
    <mxCell id="ak_6twIz9iP2yRLMIv_7-17" value="- policyId" style="text;strokeColor=none;fillColor=none;align=left;verticalAlign=top;spacingLeft=4;spacingRight=4;overflow=hidden;rotatable=0;points=[[0,0.5],[1,0.5]];portConstraint=eastwest;" vertex="1" parent="ak_6twIz9iP2yRLMIv_7-16">
      <mxGeometry y="29.818181818181817" width="200" height="30" as="geometry" />
    </mxCell>
    <mxCell id="ak_6twIz9iP2yRLMIv_7-18" value="- startDate" style="text;strokeColor=none;fillColor=none;align=left;verticalAlign=top;spacingLeft=4;spacingRight=4;overflow=hidden;rotatable=0;points=[[0,0.5],[1,0.5]];portConstraint=eastwest;" vertex="1" parent="ak_6twIz9iP2yRLMIv_7-16">
      <mxGeometry y="59.81818181818181" width="200" height="30" as="geometry" />
    </mxCell>
    <mxCell id="ak_6twIz9iP2yRLMIv_7-19" value="- endDate" style="text;strokeColor=none;fillColor=none;align=left;verticalAlign=top;spacingLeft=4;spacingRight=4;overflow=hidden;rotatable=0;points=[[0,0.5],[1,0.5]];portConstraint=eastwest;" vertex="1" parent="ak_6twIz9iP2yRLMIv_7-16">
      <mxGeometry y="89.81818181818181" width="200" height="30" as="geometry" />
    </mxCell>
    <mxCell id="ak_6twIz9iP2yRLMIv_7-20" value="- basePremium" style="text;strokeColor=none;fillColor=none;align=left;verticalAlign=top;spacingLeft=4;spacingRight=4;overflow=hidden;rotatable=0;points=[[0,0.5],[1,0.5]];portConstraint=eastwest;" vertex="1" parent="ak_6twIz9iP2yRLMIv_7-16">
      <mxGeometry y="119.81818181818181" width="200" height="30" as="geometry" />
    </mxCell>
    <mxCell id="ak_6twIz9iP2yRLMIv_7-21" value="- totalPremium" style="text;strokeColor=none;fillColor=none;align=left;verticalAlign=top;spacingLeft=4;spacingRight=4;overflow=hidden;rotatable=0;points=[[0,0.5],[1,0.5]];portConstraint=eastwest;" vertex="1" parent="ak_6twIz9iP2yRLMIv_7-16">
      <mxGeometry y="149.8181818181818" width="200" height="30" as="geometry" />
    </mxCell>
    <mxCell id="ak_6twIz9iP2yRLMIv_7-22" value="- policyType" style="text;strokeColor=none;fillColor=none;align=left;verticalAlign=top;spacingLeft=4;spacingRight=4;overflow=hidden;rotatable=0;points=[[0,0.5],[1,0.5]];portConstraint=eastwest;" vertex="1" parent="ak_6twIz9iP2yRLMIv_7-16">
      <mxGeometry y="179.8181818181818" width="200" height="30" as="geometry" />
    </mxCell>
    <mxCell id="ak_6twIz9iP2yRLMIv_7-23" value="- status" style="text;strokeColor=none;fillColor=none;align=left;verticalAlign=top;spacingLeft=4;spacingRight=4;overflow=hidden;rotatable=0;points=[[0,0.5],[1,0.5]];portConstraint=eastwest;" vertex="1" parent="ak_6twIz9iP2yRLMIv_7-16">
      <mxGeometry y="209.8181818181818" width="200" height="30" as="geometry" />
    </mxCell>
    <mxCell id="ak_6twIz9iP2yRLMIv_7-24" style="line;strokeWidth=1;fillColor=none;align=left;verticalAlign=middle;spacingTop=-1;spacingLeft=3;spacingRight=3;rotatable=0;labelPosition=right;points=[];portConstraint=eastwest;strokeColor=inherit;" vertex="1" parent="ak_6twIz9iP2yRLMIv_7-16">
      <mxGeometry y="239.8181818181818" width="200" height="8" as="geometry" />
    </mxCell>
    <mxCell id="ak_6twIz9iP2yRLMIv_7-25" value="+ calculatePremium()" style="text;strokeColor=none;fillColor=none;align=left;verticalAlign=top;spacingLeft=4;spacingRight=4;overflow=hidden;rotatable=0;points=[[0,0.5],[1,0.5]];portConstraint=eastwest;" vertex="1" parent="ak_6twIz9iP2yRLMIv_7-16">
      <mxGeometry y="247.8181818181818" width="200" height="30" as="geometry" />
    </mxCell>
    <mxCell id="ak_6twIz9iP2yRLMIv_7-26" value="+ renewPolicy()" style="text;strokeColor=none;fillColor=none;align=left;verticalAlign=top;spacingLeft=4;spacingRight=4;overflow=hidden;rotatable=0;points=[[0,0.5],[1,0.5]];portConstraint=eastwest;" vertex="1" parent="ak_6twIz9iP2yRLMIv_7-16">
      <mxGeometry y="277.8181818181818" width="200" height="30" as="geometry" />
    </mxCell>
    <mxCell id="ak_6twIz9iP2yRLMIv_7-27" value="+ cancelPolicy()" style="text;strokeColor=none;fillColor=none;align=left;verticalAlign=top;spacingLeft=4;spacingRight=4;overflow=hidden;rotatable=0;points=[[0,0.5],[1,0.5]];portConstraint=eastwest;" vertex="1" parent="ak_6twIz9iP2yRLMIv_7-16">
      <mxGeometry y="307.8181818181818" width="200" height="30" as="geometry" />
    </mxCell>
    <mxCell id="ak_6twIz9iP2yRLMIv_7-28" value="HomePolicy" style="swimlane;fontStyle=1;align=center;verticalAlign=top;childLayout=stackLayout;horizontal=1;startSize=38.857142857142854;horizontalStack=0;resizeParent=1;resizeParentMax=0;resizeLast=0;collapsible=0;marginBottom=0;" vertex="1" parent="1">
      <mxGeometry x="127.5" y="630" width="170" height="135.85714285714286" as="geometry" />
    </mxCell>
    <mxCell id="ak_6twIz9iP2yRLMIv_7-29" value="- liabilityLimit" style="text;strokeColor=none;fillColor=none;align=left;verticalAlign=top;spacingLeft=4;spacingRight=4;overflow=hidden;rotatable=0;points=[[0,0.5],[1,0.5]];portConstraint=eastwest;" vertex="1" parent="ak_6twIz9iP2yRLMIv_7-28">
      <mxGeometry y="38.857142857142854" width="170" height="39" as="geometry" />
    </mxCell>
    <mxCell id="ak_6twIz9iP2yRLMIv_7-30" value="- deductible" style="text;strokeColor=none;fillColor=none;align=left;verticalAlign=top;spacingLeft=4;spacingRight=4;overflow=hidden;rotatable=0;points=[[0,0.5],[1,0.5]];portConstraint=eastwest;" vertex="1" parent="ak_6twIz9iP2yRLMIv_7-28">
      <mxGeometry y="77.85714285714286" width="170" height="39" as="geometry" />
    </mxCell>
    <mxCell id="ak_6twIz9iP2yRLMIv_7-31" style="line;strokeWidth=1;fillColor=none;align=left;verticalAlign=middle;spacingTop=-1;spacingLeft=3;spacingRight=3;rotatable=0;labelPosition=right;points=[];portConstraint=eastwest;strokeColor=inherit;" vertex="1" parent="ak_6twIz9iP2yRLMIv_7-28">
      <mxGeometry y="116.85714285714286" width="170" height="19" as="geometry" />
    </mxCell>
    <mxCell id="ak_6twIz9iP2yRLMIv_7-32" value="AutoPolicy" style="swimlane;fontStyle=1;align=center;verticalAlign=top;childLayout=stackLayout;horizontal=1;startSize=38.857142857142854;horizontalStack=0;resizeParent=1;resizeParentMax=0;resizeLast=0;collapsible=0;marginBottom=0;" vertex="1" parent="1">
      <mxGeometry x="358.5" y="680" width="143" height="135.85714285714286" as="geometry" />
    </mxCell>
    <mxCell id="ak_6twIz9iP2yRLMIv_7-33" value="- driverAge" style="text;strokeColor=none;fillColor=none;align=left;verticalAlign=top;spacingLeft=4;spacingRight=4;overflow=hidden;rotatable=0;points=[[0,0.5],[1,0.5]];portConstraint=eastwest;" vertex="1" parent="ak_6twIz9iP2yRLMIv_7-32">
      <mxGeometry y="38.857142857142854" width="143" height="39" as="geometry" />
    </mxCell>
    <mxCell id="ak_6twIz9iP2yRLMIv_7-34" value="- accidents" style="text;strokeColor=none;fillColor=none;align=left;verticalAlign=top;spacingLeft=4;spacingRight=4;overflow=hidden;rotatable=0;points=[[0,0.5],[1,0.5]];portConstraint=eastwest;" vertex="1" parent="ak_6twIz9iP2yRLMIv_7-32">
      <mxGeometry y="77.85714285714286" width="143" height="39" as="geometry" />
    </mxCell>
    <mxCell id="ak_6twIz9iP2yRLMIv_7-35" style="line;strokeWidth=1;fillColor=none;align=left;verticalAlign=middle;spacingTop=-1;spacingLeft=3;spacingRight=3;rotatable=0;labelPosition=right;points=[];portConstraint=eastwest;strokeColor=inherit;" vertex="1" parent="ak_6twIz9iP2yRLMIv_7-32">
      <mxGeometry y="116.85714285714286" width="143" height="19" as="geometry" />
    </mxCell>
    <mxCell id="ak_6twIz9iP2yRLMIv_7-36" value="Residence" style="swimlane;fontStyle=1;align=center;verticalAlign=top;childLayout=stackLayout;horizontal=1;startSize=32;horizontalStack=0;resizeParent=1;resizeParentMax=0;resizeLast=0;collapsible=0;marginBottom=0;" vertex="1" parent="1">
      <mxGeometry x="9" y="860" width="166" height="208" as="geometry" />
    </mxCell>
    <mxCell id="ak_6twIz9iP2yRLMIv_7-37" value="- ageBuilt" style="text;strokeColor=none;fillColor=none;align=left;verticalAlign=top;spacingLeft=4;spacingRight=4;overflow=hidden;rotatable=0;points=[[0,0.5],[1,0.5]];portConstraint=eastwest;" vertex="1" parent="ak_6twIz9iP2yRLMIv_7-36">
      <mxGeometry y="32" width="166" height="32" as="geometry" />
    </mxCell>
    <mxCell id="ak_6twIz9iP2yRLMIv_7-38" value="- dwellingType" style="text;strokeColor=none;fillColor=none;align=left;verticalAlign=top;spacingLeft=4;spacingRight=4;overflow=hidden;rotatable=0;points=[[0,0.5],[1,0.5]];portConstraint=eastwest;" vertex="1" parent="ak_6twIz9iP2yRLMIv_7-36">
      <mxGeometry y="64" width="166" height="32" as="geometry" />
    </mxCell>
    <mxCell id="ak_6twIz9iP2yRLMIv_7-39" value="- heatingType" style="text;strokeColor=none;fillColor=none;align=left;verticalAlign=top;spacingLeft=4;spacingRight=4;overflow=hidden;rotatable=0;points=[[0,0.5],[1,0.5]];portConstraint=eastwest;" vertex="1" parent="ak_6twIz9iP2yRLMIv_7-36">
      <mxGeometry y="96" width="166" height="32" as="geometry" />
    </mxCell>
    <mxCell id="ak_6twIz9iP2yRLMIv_7-40" value="- location" style="text;strokeColor=none;fillColor=none;align=left;verticalAlign=top;spacingLeft=4;spacingRight=4;overflow=hidden;rotatable=0;points=[[0,0.5],[1,0.5]];portConstraint=eastwest;" vertex="1" parent="ak_6twIz9iP2yRLMIv_7-36">
      <mxGeometry y="128" width="166" height="32" as="geometry" />
    </mxCell>
    <mxCell id="ak_6twIz9iP2yRLMIv_7-41" value="- homeValue" style="text;strokeColor=none;fillColor=none;align=left;verticalAlign=top;spacingLeft=4;spacingRight=4;overflow=hidden;rotatable=0;points=[[0,0.5],[1,0.5]];portConstraint=eastwest;" vertex="1" parent="ak_6twIz9iP2yRLMIv_7-36">
      <mxGeometry y="160" width="166" height="32" as="geometry" />
    </mxCell>
    <mxCell id="ak_6twIz9iP2yRLMIv_7-42" style="line;strokeWidth=1;fillColor=none;align=left;verticalAlign=middle;spacingTop=-1;spacingLeft=3;spacingRight=3;rotatable=0;labelPosition=right;points=[];portConstraint=eastwest;strokeColor=inherit;" vertex="1" parent="ak_6twIz9iP2yRLMIv_7-36">
      <mxGeometry y="192" width="166" height="16" as="geometry" />
    </mxCell>
    <mxCell id="ak_6twIz9iP2yRLMIv_7-43" value="Vehicle" style="swimlane;fontStyle=1;align=center;verticalAlign=top;childLayout=stackLayout;horizontal=1;startSize=35.55555555555556;horizontalStack=0;resizeParent=1;resizeParentMax=0;resizeLast=0;collapsible=0;marginBottom=0;" vertex="1" parent="1">
      <mxGeometry x="285" y="916" width="106" height="161.55555555555554" as="geometry" />
    </mxCell>
    <mxCell id="ak_6twIz9iP2yRLMIv_7-44" value="- make" style="text;strokeColor=none;fillColor=none;align=left;verticalAlign=top;spacingLeft=4;spacingRight=4;overflow=hidden;rotatable=0;points=[[0,0.5],[1,0.5]];portConstraint=eastwest;" vertex="1" parent="ak_6twIz9iP2yRLMIv_7-43">
      <mxGeometry y="35.55555555555556" width="106" height="36" as="geometry" />
    </mxCell>
    <mxCell id="ak_6twIz9iP2yRLMIv_7-45" value="- model" style="text;strokeColor=none;fillColor=none;align=left;verticalAlign=top;spacingLeft=4;spacingRight=4;overflow=hidden;rotatable=0;points=[[0,0.5],[1,0.5]];portConstraint=eastwest;" vertex="1" parent="ak_6twIz9iP2yRLMIv_7-43">
      <mxGeometry y="71.55555555555556" width="106" height="36" as="geometry" />
    </mxCell>
    <mxCell id="ak_6twIz9iP2yRLMIv_7-46" value="- year" style="text;strokeColor=none;fillColor=none;align=left;verticalAlign=top;spacingLeft=4;spacingRight=4;overflow=hidden;rotatable=0;points=[[0,0.5],[1,0.5]];portConstraint=eastwest;" vertex="1" parent="ak_6twIz9iP2yRLMIv_7-43">
      <mxGeometry y="107.55555555555556" width="106" height="36" as="geometry" />
    </mxCell>
    <mxCell id="ak_6twIz9iP2yRLMIv_7-47" style="line;strokeWidth=1;fillColor=none;align=left;verticalAlign=middle;spacingTop=-1;spacingLeft=3;spacingRight=3;rotatable=0;labelPosition=right;points=[];portConstraint=eastwest;strokeColor=inherit;" vertex="1" parent="ak_6twIz9iP2yRLMIv_7-43">
      <mxGeometry y="143.55555555555554" width="106" height="18" as="geometry" />
    </mxCell>
    <mxCell id="ak_6twIz9iP2yRLMIv_7-48" value="Accident" style="swimlane;fontStyle=1;align=center;verticalAlign=top;childLayout=stackLayout;horizontal=1;startSize=36.8;horizontalStack=0;resizeParent=1;resizeParentMax=0;resizeLast=0;collapsible=0;marginBottom=0;" vertex="1" parent="1">
      <mxGeometry x="441" y="904" width="191" height="192.8" as="geometry" />
    </mxCell>
    <mxCell id="ak_6twIz9iP2yRLMIv_7-49" value="- accidentId" style="text;strokeColor=none;fillColor=none;align=left;verticalAlign=top;spacingLeft=4;spacingRight=4;overflow=hidden;rotatable=0;points=[[0,0.5],[1,0.5]];portConstraint=eastwest;" vertex="1" parent="ak_6twIz9iP2yRLMIv_7-48">
      <mxGeometry y="36.8" width="191" height="37" as="geometry" />
    </mxCell>
    <mxCell id="ak_6twIz9iP2yRLMIv_7-50" value="- date" style="text;strokeColor=none;fillColor=none;align=left;verticalAlign=top;spacingLeft=4;spacingRight=4;overflow=hidden;rotatable=0;points=[[0,0.5],[1,0.5]];portConstraint=eastwest;" vertex="1" parent="ak_6twIz9iP2yRLMIv_7-48">
      <mxGeometry y="73.8" width="191" height="37" as="geometry" />
    </mxCell>
    <mxCell id="ak_6twIz9iP2yRLMIv_7-51" value="- atFaultDriver" style="text;strokeColor=none;fillColor=none;align=left;verticalAlign=top;spacingLeft=4;spacingRight=4;overflow=hidden;rotatable=0;points=[[0,0.5],[1,0.5]];portConstraint=eastwest;" vertex="1" parent="ak_6twIz9iP2yRLMIv_7-48">
      <mxGeometry y="110.8" width="191" height="37" as="geometry" />
    </mxCell>
    <mxCell id="ak_6twIz9iP2yRLMIv_7-52" style="line;strokeWidth=1;fillColor=none;align=left;verticalAlign=middle;spacingTop=-1;spacingLeft=3;spacingRight=3;rotatable=0;labelPosition=right;points=[];portConstraint=eastwest;strokeColor=inherit;" vertex="1" parent="ak_6twIz9iP2yRLMIv_7-48">
      <mxGeometry y="147.8" width="191" height="8" as="geometry" />
    </mxCell>
    <mxCell id="ak_6twIz9iP2yRLMIv_7-53" value="+ recordAccident()" style="text;strokeColor=none;fillColor=none;align=left;verticalAlign=top;spacingLeft=4;spacingRight=4;overflow=hidden;rotatable=0;points=[[0,0.5],[1,0.5]];portConstraint=eastwest;" vertex="1" parent="ak_6twIz9iP2yRLMIv_7-48">
      <mxGeometry y="155.8" width="191" height="37" as="geometry" />
    </mxCell>
    <mxCell id="ak_6twIz9iP2yRLMIv_7-54" value="" style="startArrow=block;startSize=16;startFill=0;endArrow=none;exitX=0;exitY=0.86;entryX=0.5;entryY=0;rounded=0;edgeStyle=orthogonalEdgeStyle;elbow=vertical;" edge="1" parent="1" source="ak_6twIz9iP2yRLMIv_7-1" target="ak_6twIz9iP2yRLMIv_7-12">
      <mxGeometry relative="1" as="geometry" />
    </mxCell>
    <mxCell id="ak_6twIz9iP2yRLMIv_7-55" value="" style="startArrow=none;endArrow=diamondThin;endSize=14;endFill=0;exitX=1;exitY=0.86;entryX=0.5;entryY=0;rounded=0;edgeStyle=orthogonalEdgeStyle;elbow=vertical;" edge="1" parent="1" source="ak_6twIz9iP2yRLMIv_7-1" target="ak_6twIz9iP2yRLMIv_7-16">
      <mxGeometry relative="1" as="geometry" />
    </mxCell>
    <mxCell id="ak_6twIz9iP2yRLMIv_7-56" value="1" style="edgeLabel;resizable=0;labelBackgroundColor=none;fontSize=12;align=right;verticalAlign=top;" vertex="1" parent="ak_6twIz9iP2yRLMIv_7-55">
      <mxGeometry x="-1" relative="1" as="geometry" />
    </mxCell>
    <mxCell id="ak_6twIz9iP2yRLMIv_7-57" value="*" style="edgeLabel;resizable=0;labelBackgroundColor=none;fontSize=12;align=left;verticalAlign=bottom;" vertex="1" parent="ak_6twIz9iP2yRLMIv_7-55">
      <mxGeometry x="1" relative="1" as="geometry" />
    </mxCell>
    <mxCell id="ak_6twIz9iP2yRLMIv_7-58" value="" style="startArrow=block;startSize=16;startFill=0;endArrow=none;exitX=0;exitY=0.8;entryX=0.5;entryY=0;rounded=0;edgeStyle=orthogonalEdgeStyle;elbow=vertical;" edge="1" parent="1" source="ak_6twIz9iP2yRLMIv_7-16" target="ak_6twIz9iP2yRLMIv_7-28">
      <mxGeometry relative="1" as="geometry" />
    </mxCell>
    <mxCell id="ak_6twIz9iP2yRLMIv_7-59" value="" style="startArrow=block;startSize=16;startFill=0;endArrow=none;exitX=0.95;exitY=1;entryX=0.5;entryY=0;rounded=0;edgeStyle=orthogonalEdgeStyle;elbow=vertical;" edge="1" parent="1" source="ak_6twIz9iP2yRLMIv_7-16" target="ak_6twIz9iP2yRLMIv_7-32">
      <mxGeometry relative="1" as="geometry" />
    </mxCell>
    <mxCell id="ak_6twIz9iP2yRLMIv_7-60" value="" style="startArrow=diamondThin;startSize=14;startFill=0;endArrow=none;exitX=0.5;exitY=1;entryX=0.5;entryY=0;rounded=0;edgeStyle=orthogonalEdgeStyle;elbow=vertical;" edge="1" parent="1" source="ak_6twIz9iP2yRLMIv_7-28" target="ak_6twIz9iP2yRLMIv_7-36">
      <mxGeometry relative="1" as="geometry" />
    </mxCell>
    <mxCell id="ak_6twIz9iP2yRLMIv_7-61" value="" style="startArrow=diamondThin;startSize=14;startFill=0;endArrow=none;entryX=0.5;entryY=0;rounded=0;edgeStyle=orthogonalEdgeStyle;elbow=vertical;" edge="1" parent="1" target="ak_6twIz9iP2yRLMIv_7-43">
      <mxGeometry relative="1" as="geometry">
        <mxPoint x="380" y="820" as="sourcePoint" />
      </mxGeometry>
    </mxCell>
    <mxCell id="ak_6twIz9iP2yRLMIv_7-62" value="" style="startArrow=diamondThin;startSize=14;startFill=0;endArrow=none;entryX=0.5;entryY=0;rounded=0;edgeStyle=orthogonalEdgeStyle;elbow=vertical;" edge="1" parent="1" target="ak_6twIz9iP2yRLMIv_7-48">
      <mxGeometry relative="1" as="geometry">
        <mxPoint x="480" y="820" as="sourcePoint" />
      </mxGeometry>
    </mxCell>
  </root>
</mxGraphModel>
